<mxfile host="Electron" modified="2023-12-29T16:09:38.120Z" agent="Mozilla/5.0 (Windows NT 10.0; Win64; x64) AppleWebKit/537.36 (KHTML, like Gecko) draw.io/22.1.15 Chrome/120.0.6099.109 Electron/28.1.0 Safari/537.36" etag="XeFTFac2H-EmamVPfs9S" version="22.1.15" type="device">
  <diagram name="Page-1" id="IjIPLxOo1oslBxcoEfTO">
    <mxGraphModel dx="1219" dy="713" grid="0" gridSize="10" guides="1" tooltips="1" connect="1" arrows="1" fold="1" page="1" pageScale="1" pageWidth="850" pageHeight="1100" math="0" shadow="0">
      <root>
        <mxCell id="0" />
        <mxCell id="1" parent="0" />
        <mxCell id="qFa3t1iT2aIQVFI5Eqdw-3" value="&amp;lt;&amp;lt;device &amp;gt;&amp;gt; Client" style="verticalAlign=top;align=left;spacingTop=8;spacingLeft=2;spacingRight=12;shape=cube;size=10;direction=south;fontStyle=4;html=1;whiteSpace=wrap;" parent="1" vertex="1">
          <mxGeometry x="37" y="242" width="118" height="72" as="geometry" />
        </mxCell>
        <mxCell id="qFa3t1iT2aIQVFI5Eqdw-18" value="" style="endArrow=none;html=1;rounded=0;entryX=0.514;entryY=0.998;entryDx=0;entryDy=0;entryPerimeter=0;exitX=0;exitY=0;exitDx=31;exitDy=0;exitPerimeter=0;" parent="1" source="qFa3t1iT2aIQVFI5Eqdw-3" target="qFa3t1iT2aIQVFI5Eqdw-1" edge="1">
          <mxGeometry width="50" height="50" relative="1" as="geometry">
            <mxPoint x="404" y="359" as="sourcePoint" />
            <mxPoint x="454" y="309" as="targetPoint" />
          </mxGeometry>
        </mxCell>
        <mxCell id="qFa3t1iT2aIQVFI5Eqdw-19" value="0..*" style="text;html=1;align=center;verticalAlign=middle;resizable=0;points=[];autosize=1;strokeColor=none;fillColor=none;" parent="1" vertex="1">
          <mxGeometry x="150" y="247" width="36" height="26" as="geometry" />
        </mxCell>
        <mxCell id="qFa3t1iT2aIQVFI5Eqdw-20" value="1" style="text;html=1;align=center;verticalAlign=middle;resizable=0;points=[];autosize=1;strokeColor=none;fillColor=none;" parent="1" vertex="1">
          <mxGeometry x="220" y="247" width="25" height="26" as="geometry" />
        </mxCell>
        <mxCell id="qFa3t1iT2aIQVFI5Eqdw-21" value="" style="group" parent="1" vertex="1" connectable="0">
          <mxGeometry x="237" y="42" width="410" height="450" as="geometry" />
        </mxCell>
        <mxCell id="qFa3t1iT2aIQVFI5Eqdw-1" value="&amp;lt;&amp;lt;device &amp;gt;&amp;gt; Server" style="verticalAlign=top;align=left;spacingTop=8;spacingLeft=2;spacingRight=12;shape=cube;size=10;direction=south;fontStyle=4;html=1;whiteSpace=wrap;fillColor=#fff2cc;strokeColor=#d6b656;" parent="qFa3t1iT2aIQVFI5Eqdw-21" vertex="1">
          <mxGeometry width="410" height="450" as="geometry" />
        </mxCell>
        <mxCell id="qFa3t1iT2aIQVFI5Eqdw-5" value="&amp;lt;&amp;lt;OS&amp;gt;&amp;gt; Operating System" style="verticalAlign=top;align=left;spacingTop=8;spacingLeft=2;spacingRight=12;shape=cube;size=10;direction=south;fontStyle=4;html=1;whiteSpace=wrap;fillColor=#FBCB98;strokeColor=#d79b00;" parent="qFa3t1iT2aIQVFI5Eqdw-21" vertex="1">
          <mxGeometry x="27" y="62" width="343" height="356" as="geometry" />
        </mxCell>
        <mxCell id="qFa3t1iT2aIQVFI5Eqdw-6" value="&amp;lt;&amp;lt;artifact&amp;gt;&amp;gt;&lt;br&gt;&lt;br&gt;&lt;b&gt;&lt;font style=&quot;font-size: 10px;&quot;&gt;GatewayService.jar&lt;/font&gt;&lt;/b&gt;" style="html=1;align=center;verticalAlign=middle;dashed=0;whiteSpace=wrap;" parent="qFa3t1iT2aIQVFI5Eqdw-21" vertex="1">
          <mxGeometry x="44" y="113" width="124" height="54" as="geometry" />
        </mxCell>
        <mxCell id="qFa3t1iT2aIQVFI5Eqdw-10" value="&amp;lt;&amp;lt;artifact&amp;gt;&amp;gt;&lt;br&gt;&lt;br&gt;&lt;b&gt;&lt;font style=&quot;font-size: 10px;&quot;&gt;TournamentService.jar&lt;/font&gt;&lt;/b&gt;" style="html=1;align=center;verticalAlign=middle;dashed=0;whiteSpace=wrap;" parent="qFa3t1iT2aIQVFI5Eqdw-21" vertex="1">
          <mxGeometry x="44" y="180" width="138" height="54" as="geometry" />
        </mxCell>
        <mxCell id="qFa3t1iT2aIQVFI5Eqdw-11" value="&amp;lt;&amp;lt;artifact&amp;gt;&amp;gt;&lt;br&gt;&lt;br&gt;&lt;b&gt;&lt;font style=&quot;font-size: 10px;&quot;&gt;BattleService.jar&lt;/font&gt;&lt;/b&gt;" style="html=1;align=center;verticalAlign=middle;dashed=0;whiteSpace=wrap;" parent="qFa3t1iT2aIQVFI5Eqdw-21" vertex="1">
          <mxGeometry x="44" y="244" width="138" height="54" as="geometry" />
        </mxCell>
        <mxCell id="qFa3t1iT2aIQVFI5Eqdw-14" value="&amp;lt;&amp;lt;artifact&amp;gt;&amp;gt;&lt;br&gt;&lt;br&gt;&lt;b&gt;&lt;font style=&quot;font-size: 9px;&quot;&gt;GitHubIntegrationService.jar&lt;/font&gt;&lt;/b&gt;" style="html=1;align=center;verticalAlign=middle;dashed=0;whiteSpace=wrap;" parent="qFa3t1iT2aIQVFI5Eqdw-21" vertex="1">
          <mxGeometry x="46" y="310" width="138" height="54" as="geometry" />
        </mxCell>
        <mxCell id="qFa3t1iT2aIQVFI5Eqdw-15" value="&amp;lt;&amp;lt;artifact&amp;gt;&amp;gt;&lt;br&gt;&lt;br&gt;&lt;b&gt;&lt;font style=&quot;font-size: 9px;&quot;&gt;UserManagementService.jar&lt;/font&gt;&lt;/b&gt;" style="html=1;align=center;verticalAlign=middle;dashed=0;whiteSpace=wrap;" parent="qFa3t1iT2aIQVFI5Eqdw-21" vertex="1">
          <mxGeometry x="209" y="117" width="138" height="54" as="geometry" />
        </mxCell>
        <mxCell id="qFa3t1iT2aIQVFI5Eqdw-16" value="&amp;lt;&amp;lt;artifact&amp;gt;&amp;gt;&lt;br&gt;&lt;br&gt;&lt;b&gt;&lt;font style=&quot;font-size: 10px;&quot;&gt;NotificationService.jar&lt;/font&gt;&lt;/b&gt;" style="html=1;align=center;verticalAlign=middle;dashed=0;whiteSpace=wrap;" parent="qFa3t1iT2aIQVFI5Eqdw-21" vertex="1">
          <mxGeometry x="209" y="182" width="138" height="54" as="geometry" />
        </mxCell>
        <mxCell id="qFa3t1iT2aIQVFI5Eqdw-17" value="&amp;lt;&amp;lt;artifact&amp;gt;&amp;gt;&lt;br&gt;&lt;br&gt;&lt;b style=&quot;&quot;&gt;&lt;font style=&quot;font-size: 9px;&quot;&gt;ScoreComputationService.jar&lt;/font&gt;&lt;/b&gt;" style="html=1;align=center;verticalAlign=middle;dashed=0;whiteSpace=wrap;" parent="qFa3t1iT2aIQVFI5Eqdw-21" vertex="1">
          <mxGeometry x="209" y="247" width="138" height="54" as="geometry" />
        </mxCell>
        <mxCell id="qFa3t1iT2aIQVFI5Eqdw-22" value="&amp;lt;&amp;lt;database server&amp;gt;&amp;gt; DBMS" style="verticalAlign=top;align=center;spacingTop=8;spacingLeft=2;spacingRight=12;shape=cube;size=10;direction=south;fontStyle=4;html=1;whiteSpace=wrap;" parent="1" vertex="1">
          <mxGeometry x="700" y="220" width="140" height="90" as="geometry" />
        </mxCell>
        <mxCell id="qFa3t1iT2aIQVFI5Eqdw-23" value="" style="endArrow=none;html=1;rounded=0;labelPosition=center;verticalLabelPosition=middle;align=center;verticalAlign=middle;startArrow=none;startFill=0;" parent="1" edge="1">
          <mxGeometry width="50" height="50" relative="1" as="geometry">
            <mxPoint x="647" y="280" as="sourcePoint" />
            <mxPoint x="700" y="280" as="targetPoint" />
          </mxGeometry>
        </mxCell>
        <mxCell id="qFa3t1iT2aIQVFI5Eqdw-24" value="1&lt;br&gt;" style="text;html=1;align=center;verticalAlign=middle;resizable=0;points=[];autosize=1;strokeColor=none;fillColor=none;" parent="1" vertex="1">
          <mxGeometry x="640" y="258" width="30" height="30" as="geometry" />
        </mxCell>
        <mxCell id="qFa3t1iT2aIQVFI5Eqdw-25" value="1..*" style="text;html=1;align=center;verticalAlign=middle;resizable=0;points=[];autosize=1;strokeColor=none;fillColor=none;" parent="1" vertex="1">
          <mxGeometry x="670" y="258" width="40" height="30" as="geometry" />
        </mxCell>
        <mxCell id="7BaJC1TyIM1efvzDowC3-1" value="TCP/IP" style="text;html=1;align=center;verticalAlign=middle;resizable=0;points=[];autosize=1;strokeColor=none;fillColor=none;" vertex="1" parent="1">
          <mxGeometry x="165" y="271" width="57" height="26" as="geometry" />
        </mxCell>
        <mxCell id="7BaJC1TyIM1efvzDowC3-4" value="TCP/IP" style="text;html=1;align=center;verticalAlign=middle;resizable=0;points=[];autosize=1;strokeColor=none;fillColor=none;" vertex="1" parent="1">
          <mxGeometry x="643" y="281" width="57" height="26" as="geometry" />
        </mxCell>
      </root>
    </mxGraphModel>
  </diagram>
</mxfile>
